<?xml version="1.0" encoding="utf-8"?>
<!-- Generator: Adobe Illustrator 17.0.1, SVG Export Plug-In . SVG Version: 6.00 Build 0)  -->
<!DOCTYPE svg PUBLIC "-//W3C//DTD SVG 1.1//EN" "http://www.w3.org/Graphics/SVG/1.1/DTD/svg11.dtd">
<svg version="1.1" id="Layer_1" xmlns="http://www.w3.org/2000/svg" xmlns:xlink="http://www.w3.org/1999/xlink" x="0px" y="0px"
	 width="353.784px" height="55.061px" viewBox="0 0 353.784 55.061" enable-background="new 0 0 353.784 55.061"
	 xml:space="preserve">
<g>
	<g>
		<g>
			<g>
				<path fill="#EC1C24" d="M96.016,32.186H80.763c0,5.768,3.08,9.139,8.31,9.139c1.471,0,3.179-0.24,6.216-0.83l0.379,2.104
					c-4.646,1.561-7.861,2.248-10.507,2.248c-7.227,0-11.922-4.693-11.922-11.881c0-7.625,5.133-12.949,12.461-12.949
					c4.104,0,7.145,1.463,8.654,4.104C95.623,26.32,95.916,27.881,96.016,32.186L96.016,32.186z M88.635,29.106
					c-0.198-4.938-1.169-6.648-3.722-6.648c-2.878,0-4.002,2.004-4.1,7.285L88.635,29.106L88.635,29.106z"/>
				<path fill="#EC1C24" d="M101.65,23.19h-3.624v-1.953c3.136-1.025,4.605-1.711,5.335-2.443c0.243-0.246,0.679-0.828,1.271-1.859
					c0.487-0.783,0.878-1.467,1.175-2.053c0.037-0.098,0.148-0.242,0.188-0.443h2.859v5.818h7.578v2.934h-7.578v13.828
					c0,3.184,0.975,4.307,3.714,4.307c0.684,0,1.119-0.033,1.546-0.088l0.25,2.688c-2.534,0.623-4.534,0.922-6.338,0.922
					c-4.644,0-6.375-1.857-6.375-6.111V23.19L101.65,23.19z"/>
				<path fill="#EC1C24" d="M144.268,40.934V28.369c0-3.271-0.536-5.029-2.008-6.549c-1.167-1.27-2.975-2.051-4.785-2.051
					c-1.42,0-2.027,0.246-5.692,1.512c-0.637,0.246-1.559,0.539-2.786,0.979V9.703l-11.362,2.199v1.512l4.15,1.269v26.25
					l-4.15,1.904v1.518h11.362V24.072c1.52-0.195,2.149-0.242,3.475-0.242c3.468,0,4.542,1.363,4.542,5.912v11.191l-2.882,1.904
					v1.518h14.244v-1.518L144.268,40.934L144.268,40.934z"/>
				<path fill="#EC1C24" d="M64.727,20.256v1.516l3.231,1.91l-4.94,13.004l-0.584-1.57l-0.829-2.055l-4.634-12.805h-9.497v1.516
					l2.932,1.91l9.05,20.719l-1.226,3.082c-1.417,3.471-2.544,4.691-4.838,5.18l-0.884-3.219h-4.541v5.033
					c1.662,0.434,2.884,0.584,4.352,0.584c1.806,0,3.319-0.346,4.692-1.121c1.854-1.029,3.127-2.789,4.538-6.115l10.073-24.143
					l2.841-1.91v-1.516H64.727L64.727,20.256z"/>
				<path fill="#EC1C24" d="M39.89,11.529v1.51l3.717,1.912l-6.31,19.645l-0.345-1.17l-0.776-2.006l-6.751-19.891h-3.315
					l-8.363,22.68l-0.491-1.814l-1.269-3.613l-5.171-17.252H0v1.51l3.815,1.912l10.17,29.422h3.221l8.459-22.732
					c0.488,1.621,0.631,2.109,1.178,3.619l6.445,19.113h3.178l11.242-29.422l3.867-1.912v-1.51H39.89L39.89,11.529z"/>
			</g>
			<path fill="#EC1C24" d="M148.106,17.508c-2.073,0-3.74-1.666-3.74-3.738c0-2.043,1.667-3.719,3.74-3.719
				c2.062,0,3.719,1.676,3.719,3.719C151.824,15.842,150.167,17.508,148.106,17.508z M148.106,18.309
				c2.508,0,4.514-2.023,4.514-4.539c0-2.49-2.006-4.516-4.514-4.516c-2.515,0-4.537,2.025-4.537,4.516
				C143.568,16.285,145.591,18.309,148.106,18.309z M147.84,14.068c0.293,0.027,0.566,0,0.775,0.219
				c0.231,0.254,0.231,0.674,0.296,1.131c0.032,0.313,0.117,0.646,0.182,0.953h1.065c-0.189-0.484-0.247-1.039-0.321-1.547
				c-0.085-0.576-0.172-0.899-0.903-1.043v-0.023c0.71-0.145,1.084-0.627,1.084-1.24c0-1.201-1.01-1.469-1.988-1.469h-1.717v5.322
				h0.828v-2.303H147.84z M147.141,13.24v-1.365h1.001c0.665,0,0.845,0.211,0.845,0.611c0,0.402-0.18,0.732-0.965,0.754H147.141z"/>
		</g>
		<rect x="158.984" y="0" fill="#EC1C24" width="1.87" height="54.928"/>
		<g>
			<path fill="#EC1C24" d="M194.238,44.561L175.184,13.25v31.311h-2.972V9.408h4.28l19.064,31.412V9.408h2.964v35.152H194.238z"/>
			<path fill="#EC1C24" d="M224.435,44.561l-0.096-3.934c-2.041,2.916-4.378,4.18-7.966,4.18c-6.568,0-8.759-3.594-8.759-9.773
				V20.008h2.966v13.861c0,4.568,1.074,8.459,6.273,8.459c5.539,0,7.389-4.617,7.389-9.477V20.008h2.963v17.215
				c0,2.428,0.057,4.912,0.151,7.338H224.435z"/>
			<path fill="#EC1C24" d="M242.285,44.76c-3.548,0-5.206-1.699-5.206-5.254V22.197h-4.856v-2.189h4.856v-5.053l2.972-1.313v6.365
				h5.494v2.189h-5.494v15.996c0,2.77,0.385,4.086,3.449,4.086c0.783,0,1.506-0.244,2.24-0.295v2.531
				C244.572,44.664,243.453,44.76,242.285,44.76z"/>
			<path fill="#EC1C24" d="M261.198,22.733c-5.249,0-6.901,3.064-6.901,7.928v13.902h-2.974V27.207c0-2.389-0.235-4.816-0.138-7.199
				h2.914l0.197,3.844c1.804-2.824,4.234-3.988,7.538-3.988c0.437,0,0.925,0.049,1.359,0.098v2.971
				C262.516,22.828,261.88,22.733,261.198,22.733z"/>
			<path fill="#EC1C24" d="M267.721,13.106V9.408h3.55v3.697H267.721z M268.009,44.563V20.008h2.966v24.555H268.009z"/>
			<path fill="#EC1C24" d="M286.049,44.76c-3.545,0-5.204-1.699-5.204-5.254V22.197h-4.857v-2.189h4.857v-5.053l2.964-1.311v6.363
				h5.498v2.189h-5.498v15.996c0,2.77,0.393,4.086,3.455,4.086c0.779,0,1.51-0.244,2.24-0.295v2.531
				C288.337,44.664,287.221,44.76,286.049,44.76z"/>
			<path fill="#EC1C24" d="M294.802,13.106V9.408h3.553v3.697H294.802z M295.089,44.563V20.008h2.968v24.555H295.089z"/>
			<path fill="#EC1C24" d="M316.15,45.1c-7.68,0-11.528-5.785-11.528-12.979c0-7.101,4.036-12.596,11.528-12.596
				c7.586,0,11.477,5.396,11.477,12.596C327.627,39.022,323.537,45.1,316.15,45.1z M316.15,21.953c-5.887,0-8.36,4.863-8.36,10.168
				c0,5.199,2.425,10.689,8.36,10.689c5.833,0,8.308-5.639,8.308-10.689C324.458,26.869,322.034,21.953,316.15,21.953z"/>
			<path fill="#EC1C24" d="M350.821,44.563V30.709c0-4.578-0.534-8.467-6.171-8.467c-5.549,0-7.492,4.379-7.492,9.242v13.078h-2.965
				V26.961c0-2.332-0.15-4.615-0.15-6.953h2.927l0.188,4.084c1.989-2.963,4.421-4.322,8.023-4.322c6.66,0,8.603,3.693,8.603,9.775
				v15.017H350.821z"/>
		</g>
	</g>
</g>
</svg>
