<svg width="250" height="77" viewBox="0 0 250 77" fill="none" xmlns="http://www.w3.org/2000/svg">
<g filter="url(#filter0_d)">
<path d="M50.2656 56.25H28.4688L22.4219 69H4.75L40.8906 0.75H55.9844L68.5938 69H51.9062L50.2656 56.25ZM34.4688 43.5469H48.625L45.625 20.0156L34.4688 43.5469ZM92.3594 56.3438H120.156L117.953 69H74.125L85.9375 0.75H102.016L92.3594 56.3438ZM125.125 69L136.938 0.75L157 0.796875C162.906 0.796875 168.062 2.35937 172.469 5.48438C176.875 8.57812 180 12.8125 181.844 18.1875C183.438 22.9062 183.922 28 183.297 33.4688L182.969 36.3281C182.125 42.4531 180.094 48 176.875 52.9688C173.656 57.9375 169.516 61.8438 164.453 64.6875C159.391 67.5 153.922 68.9375 148.047 69H125.125ZM150.812 13.4531L143.359 56.3438L148.047 56.3906C153.547 56.3906 157.953 54.2656 161.266 50.0156C164.609 45.7656 166.594 39.2656 167.219 30.5156L167.312 28.9688C167.531 23.9688 166.75 20.1719 164.969 17.5781C163.188 14.9844 160.516 13.625 156.953 13.5L150.812 13.4531ZM214.938 44.9062H206.031L201.812 69H185.781L197.594 0.75L221.688 0.796875C229.406 0.796875 235.344 2.60938 239.5 6.23438C243.688 9.82813 245.562 14.75 245.125 21C244.781 25.9375 243.359 30.0312 240.859 33.2812C238.359 36.5 234.859 39.0469 230.359 40.9219L239.547 68.2031V69H222.438L214.938 44.9062ZM208.188 32.2031L217.562 32.2969C220.125 32.2969 222.344 31.6719 224.219 30.4219C226.125 29.1719 227.484 27.4688 228.297 25.3125C229.109 23.125 229.344 21.0156 229 18.9844C228.375 15.5156 226.156 13.6875 222.344 13.5L211.469 13.4531L208.188 32.2031Z" fill="#606C7D"/>
</g>
<defs>
<filter id="filter0_d" x="0.75" y="0.75" width="248.437" height="76.25" filterUnits="userSpaceOnUse" color-interpolation-filters="sRGB">
<feFlood flood-opacity="0" result="BackgroundImageFix"/>
<feColorMatrix in="SourceAlpha" type="matrix" values="0 0 0 0 0 0 0 0 0 0 0 0 0 0 0 0 0 0 127 0"/>
<feOffset dy="4"/>
<feGaussianBlur stdDeviation="2"/>
<feColorMatrix type="matrix" values="0 0 0 0 0 0 0 0 0 0 0 0 0 0 0 0 0 0 0.25 0"/>
<feBlend mode="normal" in2="BackgroundImageFix" result="effect1_dropShadow"/>
<feBlend mode="normal" in="SourceGraphic" in2="effect1_dropShadow" result="shape"/>
</filter>
</defs>
</svg>
