<svg width="400" height="160" viewBox="0 0 400 160" fill="none" xmlns="http://www.w3.org/2000/svg">
<rect x="2.5" y="2.5" width="395" height="155" rx="7.5" stroke="white" stroke-width="5"/>
<g filter="url(#filter0_d)">
<path d="M106.314 98.9375H82.5013L75.47 113H60.3294L96.7981 44.75H109.501L122.486 113H108.47L106.314 98.9375ZM88.1263 87.5469H104.579L100.736 62.1406L88.1263 87.5469ZM156.599 101.703H185.568L183.599 113H140.896L152.756 44.75H166.49L156.599 101.703ZM203.323 113L215.182 44.75L234.776 44.7969C239.369 44.8906 243.494 45.9375 247.151 47.9375C250.838 49.9062 253.823 52.75 256.104 56.4688C258.385 60.1875 259.76 64.375 260.229 69.0312C260.479 71.75 260.448 74.5312 260.135 77.375L259.807 79.8594C258.432 89.8594 254.494 97.8906 247.994 103.953C241.526 109.984 233.666 113 224.416 113H203.323ZM226.948 56.1406L219.026 101.703L224.744 101.75C231.057 101.75 236.119 99.4375 239.932 94.8125C243.776 90.1875 245.979 83.2031 246.541 73.8594L246.635 72.3594C246.729 67.2031 245.744 63.25 243.682 60.5C241.619 57.75 238.541 56.3125 234.448 56.1875L226.948 56.1406ZM305.124 88.0156H293.967L289.608 113H275.874L287.733 44.75L310.327 44.7969C317.889 44.7969 323.702 46.5781 327.764 50.1406C331.858 53.7031 333.671 58.6562 333.202 65C332.546 74.375 327.546 80.8906 318.202 84.5469L327.811 112.25V113H313.186L305.124 88.0156ZM295.936 76.625L306.155 76.7188C309.78 76.6562 312.764 75.6875 315.108 73.8125C317.483 71.9062 318.905 69.3281 319.374 66.0781C319.811 63.0469 319.327 60.6719 317.921 58.9531C316.514 57.2344 314.28 56.3125 311.217 56.1875L299.499 56.1406L295.936 76.625Z" fill="white"/>
<path d="M106.314 98.9375H82.5013L75.47 113H60.3294L96.7981 44.75H109.501L122.486 113H108.47L106.314 98.9375ZM88.1263 87.5469H104.579L100.736 62.1406L88.1263 87.5469ZM156.599 101.703H185.568L183.599 113H140.896L152.756 44.75H166.49L156.599 101.703ZM203.323 113L215.182 44.75L234.776 44.7969C239.369 44.8906 243.494 45.9375 247.151 47.9375C250.838 49.9062 253.823 52.75 256.104 56.4688C258.385 60.1875 259.76 64.375 260.229 69.0312C260.479 71.75 260.448 74.5312 260.135 77.375L259.807 79.8594C258.432 89.8594 254.494 97.8906 247.994 103.953C241.526 109.984 233.666 113 224.416 113H203.323ZM226.948 56.1406L219.026 101.703L224.744 101.75C231.057 101.75 236.119 99.4375 239.932 94.8125C243.776 90.1875 245.979 83.2031 246.541 73.8594L246.635 72.3594C246.729 67.2031 245.744 63.25 243.682 60.5C241.619 57.75 238.541 56.3125 234.448 56.1875L226.948 56.1406ZM305.124 88.0156H293.967L289.608 113H275.874L287.733 44.75L310.327 44.7969C317.889 44.7969 323.702 46.5781 327.764 50.1406C331.858 53.7031 333.671 58.6562 333.202 65C332.546 74.375 327.546 80.8906 318.202 84.5469L327.811 112.25V113H313.186L305.124 88.0156ZM295.936 76.625L306.155 76.7188C309.78 76.6562 312.764 75.6875 315.108 73.8125C317.483 71.9062 318.905 69.3281 319.374 66.0781C319.811 63.0469 319.327 60.6719 317.921 58.9531C316.514 57.2344 314.28 56.3125 311.217 56.1875L299.499 56.1406L295.936 76.625Z" fill="url(#paint0_linear)"/>
<path d="M106.314 98.9375H82.5013L75.47 113H60.3294L96.7981 44.75H109.501L122.486 113H108.47L106.314 98.9375ZM88.1263 87.5469H104.579L100.736 62.1406L88.1263 87.5469ZM156.599 101.703H185.568L183.599 113H140.896L152.756 44.75H166.49L156.599 101.703ZM203.323 113L215.182 44.75L234.776 44.7969C239.369 44.8906 243.494 45.9375 247.151 47.9375C250.838 49.9062 253.823 52.75 256.104 56.4688C258.385 60.1875 259.76 64.375 260.229 69.0312C260.479 71.75 260.448 74.5312 260.135 77.375L259.807 79.8594C258.432 89.8594 254.494 97.8906 247.994 103.953C241.526 109.984 233.666 113 224.416 113H203.323ZM226.948 56.1406L219.026 101.703L224.744 101.75C231.057 101.75 236.119 99.4375 239.932 94.8125C243.776 90.1875 245.979 83.2031 246.541 73.8594L246.635 72.3594C246.729 67.2031 245.744 63.25 243.682 60.5C241.619 57.75 238.541 56.3125 234.448 56.1875L226.948 56.1406ZM305.124 88.0156H293.967L289.608 113H275.874L287.733 44.75L310.327 44.7969C317.889 44.7969 323.702 46.5781 327.764 50.1406C331.858 53.7031 333.671 58.6562 333.202 65C332.546 74.375 327.546 80.8906 318.202 84.5469L327.811 112.25V113H313.186L305.124 88.0156ZM295.936 76.625L306.155 76.7188C309.78 76.6562 312.764 75.6875 315.108 73.8125C317.483 71.9062 318.905 69.3281 319.374 66.0781C319.811 63.0469 319.327 60.6719 317.921 58.9531C316.514 57.2344 314.28 56.3125 311.217 56.1875L299.499 56.1406L295.936 76.625Z" fill="url(#paint1_linear)"/>
</g>
<defs>
<filter id="filter0_d" x="56.3294" y="44.75" width="280.945" height="76.25" filterUnits="userSpaceOnUse" color-interpolation-filters="sRGB">
<feFlood flood-opacity="0" result="BackgroundImageFix"/>
<feColorMatrix in="SourceAlpha" type="matrix" values="0 0 0 0 0 0 0 0 0 0 0 0 0 0 0 0 0 0 127 0"/>
<feOffset dy="4"/>
<feGaussianBlur stdDeviation="2"/>
<feColorMatrix type="matrix" values="0 0 0 0 1 0 0 0 0 1 0 0 0 0 1 0 0 0 0.6 0"/>
<feBlend mode="normal" in2="BackgroundImageFix" result="effect1_dropShadow"/>
<feBlend mode="normal" in="SourceGraphic" in2="effect1_dropShadow" result="shape"/>
</filter>
<linearGradient id="paint0_linear" x1="200" y1="15" x2="200" y2="145" gradientUnits="userSpaceOnUse">
<stop stop-color="#FBFBFB"/>
<stop offset="1" stop-color="white" stop-opacity="0"/>
</linearGradient>
<linearGradient id="paint1_linear" x1="200" y1="15" x2="200" y2="145" gradientUnits="userSpaceOnUse">
<stop offset="0.09375" stop-color="#F9F9F9"/>
<stop offset="0.557292" stop-color="#F4F6FF" stop-opacity="0.387674"/>
<stop offset="1" stop-color="#9DA6C5" stop-opacity="0"/>
</linearGradient>
</defs>
</svg>
